<svg xmlns="http://www.w3.org/2000/svg" width="165.095" height="165.095" viewBox="0 0 165.095 165.095">
  <g id="cnc-obrabeni" transform="translate(4 4)">
    <path id="Path_11" data-name="Path 11" d="M209.114,87.989h40.981V193.857H93V87.989h51.226" transform="translate(-93 -36.763)" fill="rgba(0,0,0,0)" stroke="#0d0c22" stroke-linecap="round" stroke-linejoin="round" stroke-miterlimit="10" stroke-width="8"/>
    <path id="Path_12" data-name="Path 12" d="M154.678,123.793h-8.689V35h54.643v88.793H163.064" transform="translate(-94.762 -35)" fill="rgba(0,0,0,0)" stroke="#0d0c22" stroke-linecap="round" stroke-linejoin="round" stroke-miterlimit="10" stroke-width="8"/>
    <path id="Path_13" data-name="Path 13" d="M194.035,137.093v17.075H153.054V126.848" transform="translate(-94.997 -38.055)" fill="rgba(0,0,0,0)" stroke="#0d0c22" stroke-linecap="round" stroke-linejoin="round" stroke-miterlimit="10" stroke-width="8"/>
    <path id="Path_14" data-name="Path 14" d="M187.44,168.769,173.78,182.43l-13.66-13.661v-13.66h27.32Z" transform="translate(-95.232 -38.995)" fill="rgba(0,0,0,0)" stroke="#0d0c22" stroke-linecap="round" stroke-linejoin="round" stroke-miterlimit="10" stroke-width="8"/>
    <path id="Path_15" data-name="Path 15" d="M134.569,72.918H124.324a13.661,13.661,0,0,1-13.661-13.66h0A13.661,13.661,0,0,1,124.324,45.6h20.491" transform="translate(-93.587 -35.352)" fill="rgba(0,0,0,0)" stroke="#0d0c22" stroke-linecap="round" stroke-linejoin="round" stroke-miterlimit="10" stroke-width="8"/>
    <path id="Path_16" data-name="Path 16" d="M240.077,87.519a13.662,13.662,0,0,0-13.661-13.661H202.511" transform="translate(-96.642 -36.293)" fill="rgba(0,0,0,0)" stroke="#0d0c22" stroke-linecap="round" stroke-linejoin="round" stroke-miterlimit="10" stroke-width="8"/>
    <rect id="Rectangle_72" data-name="Rectangle 72" width="13.66" height="13.661" transform="translate(78.548 17.075)" fill="rgba(0,0,0,0)" stroke="#0d0c22" stroke-linecap="round" stroke-linejoin="round" stroke-miterlimit="10" stroke-width="8"/>
  </g>
</svg>
