<svg xmlns="http://www.w3.org/2000/svg" width="166.38" height="162.095" viewBox="0 0 166.38 162.095">
  <g id="cnc-soustruzeni" transform="translate(3 1)">
    <ellipse id="Ellipse_3" data-name="Ellipse 3" cx="33.951" cy="33.951" rx="33.951" ry="33.951" transform="translate(46.445 51.896)" fill="none" stroke="#0d0c22" stroke-linecap="round" stroke-linejoin="round" stroke-miterlimit="10" stroke-width="8"/>
    <ellipse id="Ellipse_4" data-name="Ellipse 4" cx="52.561" cy="52.561" rx="52.561" ry="52.561" transform="translate(27.76 33.287)" fill="none" stroke="#0d0c22" stroke-linecap="round" stroke-linejoin="round" stroke-miterlimit="10" stroke-width="8"/>
    <ellipse id="Ellipse_5" data-name="Ellipse 5" cx="71.248" cy="71.248" rx="71.248" ry="71.248" transform="translate(9.148 14.599)" fill="none" stroke="#0d0c22" stroke-linecap="round" stroke-linejoin="round" stroke-miterlimit="10" stroke-width="8"/>
    <ellipse id="Ellipse_6" data-name="Ellipse 6" cx="17.998" cy="17.998" rx="17.998" ry="17.998" transform="translate(62.398 67.849)" fill="none" stroke="#0d0c22" stroke-linecap="round" stroke-linejoin="round" stroke-miterlimit="10" stroke-width="8"/>
    <g id="Group_62" data-name="Group 62" transform="translate(64.108 3)">
      <path id="Path_17" data-name="Path 17" d="M172.7,88.16h4.351l11.937-11.937V27.808H156.416V76.224L168.353,88.16H172.7" transform="translate(-156.416 -27.808)" fill="#fff" stroke="#0d0c22" stroke-linecap="round" stroke-linejoin="round" stroke-miterlimit="10" stroke-width="8"/>
    </g>
    <g id="Group_63" data-name="Group 63" transform="translate(1 92.864)">
      <path id="Path_18" data-name="Path 18" d="M143.273,139.4l-2.51-3.555-16.636-2.862L84.582,160.916l18.794,26.607,39.545-27.933,2.862-16.637-2.51-3.553" transform="translate(-84.582 -132.983)" fill="#fff" stroke="#0d0c22" stroke-linecap="round" stroke-linejoin="round" stroke-miterlimit="10" stroke-width="8"/>
    </g>
    <g id="Group_64" data-name="Group 64" transform="translate(98.179 92.86)">
      <path id="Path_19" data-name="Path 19" d="M199.343,139.395l2.51-3.554,16.637-2.862,39.545,27.932-18.794,26.607L199.7,159.585l-2.863-16.637,2.51-3.553" transform="translate(-196.833 -132.979)" fill="#fff" stroke="#0d0c22" stroke-linecap="round" stroke-linejoin="round" stroke-miterlimit="10" stroke-width="8"/>
    </g>
  </g>
</svg>
